<svg id="svg" version="1.1" xmlns="http://www.w3.org/2000/svg" xmlns:xlink="http://www.w3.org/1999/xlink" width="400" height="105.20922288642186" viewBox="0, 0, 400,105.20922288642186"><g id="svgg"><path id="path0" d="M58.033 11.533 C 57.748 11.819,57.748 21.514,58.033 21.800 C 58.182 21.949,59.936 22.000,64.897 22.000 L 71.560 22.000 66.905 26.550 C 64.345 29.052,61.358 31.935,60.267 32.956 L 58.284 34.812 57.343 34.174 C 51.271 30.050,40.604 28.531,32.260 30.601 C 29.173 31.368,24.243 33.587,22.835 34.844 C 22.605 35.049,21.730 35.732,20.891 36.361 C 19.456 37.435,15.333 41.512,15.333 41.857 C 15.333 42.011,14.182 43.622,13.647 44.216 C 13.498 44.381,12.993 45.209,12.524 46.056 C 6.887 56.232,7.724 71.369,14.412 80.182 C 16.737 83.246,20.067 86.833,20.586 86.833 C 20.645 86.833,21.007 87.087,21.389 87.398 C 22.501 88.301,24.807 89.744,26.250 90.440 C 26.983 90.794,27.627 91.142,27.679 91.213 C 27.823 91.407,30.793 92.441,32.281 92.815 C 38.347 94.341,46.170 94.000,51.794 91.965 C 52.556 91.690,53.270 91.376,53.381 91.269 C 53.492 91.162,54.071 90.859,54.667 90.595 C 59.765 88.340,67.380 80.981,68.675 77.057 C 68.776 76.751,68.918 76.500,68.990 76.500 C 69.167 76.500,70.182 74.245,70.820 72.434 C 72.706 67.073,72.984 59.153,71.491 53.297 C 70.923 51.066,69.293 46.833,69.003 46.833 C 68.946 46.833,68.727 46.477,68.516 46.042 C 68.304 45.606,67.689 44.589,67.149 43.781 L 66.166 42.311 72.625 35.896 L 79.083 29.480 79.167 35.698 C 79.212 39.118,79.311 42.010,79.385 42.125 C 79.643 42.523,88.778 42.415,88.994 42.011 C 89.258 41.517,89.232 11.798,88.967 11.533 C 88.677 11.243,58.323 11.243,58.033 11.533 M88.167 26.833 L 88.167 41.167 84.168 41.167 L 80.170 41.167 80.127 34.011 L 80.083 26.855 72.294 34.553 L 64.504 42.250 64.935 42.750 C 73.513 52.707,73.386 70.091,64.657 81.000 C 46.152 104.125,9.017 90.377,9.880 60.720 C 10.575 36.842,36.677 22.791,56.851 35.434 C 57.640 35.929,58.346 36.333,58.420 36.333 C 58.601 36.333,59.607 35.378,66.583 28.583 C 69.883 25.368,72.996 22.349,73.500 21.873 L 74.417 21.007 66.708 21.004 L 59.000 21.000 59.000 16.750 L 59.000 12.500 73.583 12.500 L 88.167 12.500 88.167 26.833 M108.367 25.033 C 108.220 25.180,108.167 26.559,108.167 30.200 L 108.167 35.167 105.783 35.167 C 102.768 35.167,103.000 34.881,103.000 38.591 C 103.000 42.413,102.801 42.167,105.888 42.167 L 108.167 42.167 108.167 54.717 C 108.167 64.256,108.215 67.315,108.367 67.467 C 108.504 67.604,109.319 67.667,110.950 67.667 L 113.333 67.667 113.333 70.050 C 113.333 71.681,113.396 72.496,113.533 72.633 C 113.822 72.922,135.178 72.922,135.467 72.633 C 135.749 72.351,135.749 66.315,135.467 66.033 C 135.317 65.884,133.385 65.833,127.800 65.833 L 120.333 65.833 120.333 54.000 L 120.333 42.167 127.773 42.167 C 134.664 42.167,135.230 42.145,135.435 41.875 C 135.736 41.479,135.764 35.664,135.467 35.367 C 135.317 35.217,133.385 35.167,127.800 35.167 L 120.333 35.167 120.333 30.200 C 120.333 26.559,120.280 25.180,120.133 25.033 C 119.847 24.747,108.653 24.747,108.367 25.033 M144.200 25.033 C 143.909 25.324,143.909 72.343,144.200 72.633 C 144.487 72.920,155.680 72.920,155.967 72.633 C 156.119 72.481,156.167 68.848,156.167 57.300 L 156.167 42.167 160.333 42.167 L 164.500 42.167 164.500 57.300 C 164.500 68.848,164.547 72.481,164.700 72.633 C 164.987 72.920,176.180 72.920,176.467 72.633 C 176.757 72.343,176.757 40.657,176.467 40.367 C 176.330 40.230,175.515 40.167,173.883 40.167 L 171.500 40.167 171.500 37.867 C 171.500 36.300,171.436 35.503,171.300 35.367 C 171.150 35.217,169.219 35.167,163.633 35.167 L 156.167 35.167 156.167 30.200 C 156.167 26.559,156.113 25.180,155.967 25.033 C 155.680 24.747,144.487 24.747,144.200 25.033 M231.367 25.033 C 231.220 25.180,231.167 26.559,231.167 30.200 L 231.167 35.167 228.783 35.167 C 225.768 35.167,225.999 34.883,226.005 38.575 C 226.012 42.439,225.800 42.167,228.810 42.167 L 231.167 42.167 231.167 54.717 C 231.167 64.256,231.215 67.315,231.367 67.467 C 231.504 67.604,232.319 67.667,233.950 67.667 L 236.333 67.667 236.333 70.050 C 236.333 71.681,236.396 72.496,236.533 72.633 C 236.822 72.922,258.178 72.922,258.467 72.633 C 258.749 72.351,258.749 66.315,258.467 66.033 C 258.317 65.884,256.385 65.833,250.800 65.833 L 243.333 65.833 243.333 54.000 L 243.333 42.167 250.773 42.167 C 257.664 42.167,258.230 42.145,258.435 41.875 C 258.736 41.479,258.764 35.664,258.467 35.367 C 258.317 35.217,256.385 35.167,250.800 35.167 L 243.333 35.167 243.333 30.200 C 243.333 26.559,243.280 25.180,243.133 25.033 C 242.847 24.747,231.653 24.747,231.367 25.033 M267.200 25.033 C 266.909 25.324,266.909 72.343,267.200 72.633 C 267.490 72.923,294.010 72.923,294.300 72.633 C 294.437 72.496,294.500 71.681,294.500 70.050 L 294.500 67.667 296.883 67.667 C 298.515 67.667,299.330 67.604,299.467 67.467 C 299.756 67.177,299.756 40.656,299.467 40.367 C 299.330 40.230,298.515 40.167,296.883 40.167 L 294.500 40.167 294.500 37.867 C 294.500 36.300,294.436 35.503,294.300 35.367 C 294.150 35.217,292.219 35.167,286.633 35.167 L 279.167 35.167 279.167 30.200 C 279.167 26.559,279.113 25.180,278.967 25.033 C 278.680 24.747,267.487 24.747,267.200 25.033 M119.333 30.915 L 119.333 35.997 127.042 36.040 L 134.750 36.083 134.750 38.583 L 134.750 41.083 127.041 41.127 L 119.331 41.170 119.374 53.960 L 119.417 66.750 127.125 66.793 L 134.833 66.837 134.833 69.335 L 134.833 71.833 124.583 71.833 L 114.333 71.833 114.333 69.333 L 114.333 66.833 111.750 66.833 L 109.167 66.833 109.167 54.000 L 109.167 41.167 106.583 41.167 L 104.000 41.167 104.000 38.583 L 104.000 36.000 106.583 36.000 L 109.167 36.000 109.167 30.917 L 109.167 25.833 114.250 25.833 L 119.333 25.833 119.333 30.915 M155.333 30.917 L 155.333 36.000 163.000 36.000 L 170.667 36.000 170.667 38.583 L 170.667 41.167 173.250 41.167 L 175.833 41.167 175.833 56.500 L 175.833 71.833 170.667 71.833 L 165.500 71.833 165.500 56.500 L 165.500 41.167 160.417 41.167 L 155.333 41.167 155.333 56.500 L 155.333 71.833 150.167 71.833 L 145.000 71.833 145.000 48.833 L 145.000 25.833 150.167 25.833 L 155.333 25.833 155.333 30.917 M242.333 30.917 L 242.333 36.000 250.000 36.000 L 257.667 36.000 257.667 38.583 L 257.667 41.167 249.999 41.167 L 242.331 41.167 242.374 53.958 L 242.417 66.750 250.042 66.793 L 257.667 66.837 257.667 69.335 L 257.667 71.833 247.417 71.833 L 237.167 71.833 237.167 69.333 L 237.167 66.833 234.667 66.833 L 232.167 66.833 232.167 54.000 L 232.167 41.167 229.583 41.167 L 227.000 41.167 227.000 38.583 L 227.000 36.000 229.583 36.000 L 232.167 36.000 232.167 30.917 L 232.167 25.833 237.250 25.833 L 242.333 25.833 242.333 30.917 M278.167 30.917 L 278.167 36.000 285.917 36.000 L 293.667 36.000 293.667 38.583 L 293.667 41.167 296.167 41.167 L 298.667 41.167 298.667 54.000 L 298.667 66.833 296.167 66.833 L 293.667 66.833 293.667 69.333 L 293.667 71.833 280.833 71.833 L 268.000 71.833 268.000 48.833 L 268.000 25.833 273.083 25.833 L 278.167 25.833 278.167 30.917 M190.367 35.367 C 190.069 35.664,190.098 41.479,190.399 41.875 C 190.604 42.145,191.170 42.167,198.060 42.167 L 205.500 42.167 205.500 46.333 L 205.500 50.500 198.033 50.500 C 192.448 50.500,190.516 50.550,190.367 50.700 C 190.230 50.836,190.167 51.633,190.167 53.200 L 190.167 55.500 187.783 55.500 C 186.152 55.500,185.337 55.563,185.200 55.700 C 184.913 55.987,184.913 67.180,185.200 67.467 C 185.337 67.604,186.152 67.667,187.783 67.667 L 190.167 67.667 190.167 70.050 C 190.167 71.681,190.230 72.496,190.367 72.633 C 190.656 72.923,217.177 72.923,217.467 72.633 C 217.757 72.343,217.757 40.657,217.467 40.367 C 217.330 40.230,216.515 40.167,214.883 40.167 L 212.500 40.167 212.500 37.867 C 212.500 36.300,212.436 35.503,212.300 35.367 C 212.011 35.078,190.656 35.078,190.367 35.367 M313.367 35.367 C 313.230 35.503,313.167 36.300,313.167 37.867 L 313.167 40.167 310.783 40.167 C 309.152 40.167,308.337 40.230,308.200 40.367 C 307.910 40.656,307.910 67.177,308.200 67.467 C 308.337 67.604,309.152 67.667,310.783 67.667 L 313.167 67.667 313.167 70.050 C 313.167 71.681,313.230 72.496,313.367 72.633 C 313.656 72.922,335.011 72.922,335.300 72.633 C 335.437 72.496,335.500 71.681,335.500 70.050 L 335.500 67.667 337.883 67.667 C 339.515 67.667,340.330 67.604,340.467 67.467 C 340.756 67.177,340.756 40.656,340.467 40.367 C 340.330 40.230,339.515 40.167,337.883 40.167 L 335.500 40.167 335.500 37.867 C 335.500 36.300,335.436 35.503,335.300 35.367 C 335.011 35.078,313.656 35.078,313.367 35.367 M349.200 35.367 C 348.910 35.657,348.910 67.177,349.200 67.467 C 349.337 67.604,350.152 67.667,351.783 67.667 L 354.167 67.667 354.167 70.050 C 354.167 73.127,353.609 72.833,359.450 72.833 L 364.333 72.833 364.333 74.417 L 364.333 76.000 362.033 76.000 C 359.153 76.000,359.333 75.814,359.333 78.783 L 359.333 81.167 351.783 81.167 C 346.133 81.167,344.183 81.217,344.033 81.367 C 343.892 81.508,343.833 82.478,343.833 84.667 C 343.833 86.856,343.892 87.825,344.033 87.967 C 344.322 88.256,365.844 88.256,366.133 87.967 C 366.270 87.830,366.333 87.015,366.333 85.383 L 366.333 83.000 368.633 83.000 C 371.507 83.000,371.333 83.174,371.333 80.300 L 371.333 78.000 373.717 78.000 C 375.348 78.000,376.163 77.937,376.300 77.800 C 376.447 77.653,376.500 76.274,376.500 72.633 L 376.500 67.667 378.883 67.667 C 380.515 67.667,381.330 67.604,381.467 67.467 C 381.757 67.177,381.757 35.657,381.467 35.367 C 381.180 35.080,369.987 35.080,369.700 35.367 C 369.547 35.519,369.500 39.152,369.500 50.700 L 369.500 65.833 365.333 65.833 L 361.167 65.833 361.167 50.700 C 361.167 39.152,361.119 35.519,360.967 35.367 C 360.680 35.080,349.487 35.080,349.200 35.367 M211.667 38.583 L 211.667 41.167 214.167 41.167 L 216.667 41.167 216.667 56.500 L 216.667 71.833 203.917 71.833 L 191.167 71.833 191.167 69.333 L 191.167 66.833 188.583 66.833 L 186.000 66.833 186.000 61.667 L 186.000 56.500 188.583 56.500 L 191.167 56.500 191.167 53.917 L 191.167 51.333 198.833 51.333 L 206.500 51.333 206.500 46.250 L 206.500 41.167 198.833 41.167 L 191.167 41.167 191.167 38.583 L 191.167 36.000 201.417 36.000 L 211.667 36.000 211.667 38.583 M334.629 38.625 L 334.675 41.167 337.171 41.167 L 339.667 41.167 339.667 54.000 L 339.667 66.833 337.167 66.833 L 334.667 66.833 334.667 69.333 L 334.667 71.833 324.417 71.833 L 314.167 71.833 314.167 69.333 L 314.167 66.833 311.583 66.833 L 309.000 66.833 309.000 54.004 L 309.000 41.175 311.542 41.129 L 314.083 41.083 314.129 38.540 L 314.175 35.997 324.379 36.040 L 334.583 36.083 334.629 38.625 M360.207 51.375 L 360.250 66.750 365.333 66.750 L 370.417 66.750 370.459 51.375 L 370.502 36.000 375.584 36.000 L 380.667 36.000 380.667 51.417 L 380.667 66.833 378.167 66.833 L 375.667 66.833 375.667 71.917 L 375.667 77.000 373.083 77.000 L 370.500 77.000 370.500 79.583 L 370.500 82.167 367.917 82.167 L 365.333 82.167 365.333 84.751 L 365.333 87.336 355.125 87.293 L 344.917 87.250 344.871 84.708 L 344.825 82.167 352.496 82.167 L 360.167 82.167 360.167 79.583 L 360.167 77.000 362.750 77.000 L 365.333 77.000 365.333 74.417 L 365.333 71.833 360.167 71.833 L 355.000 71.833 355.000 69.333 L 355.000 66.833 352.500 66.833 L 350.000 66.833 350.000 51.417 L 350.000 36.000 355.082 36.000 L 360.165 36.000 360.207 51.375 M38.167 39.340 C 16.962 41.927,10.923 69.596,29.083 80.957 C 41.769 88.892,58.808 81.654,62.329 66.833 C 65.891 51.835,53.289 37.495,38.167 39.340 M44.130 40.587 C 45.525 40.853,48.698 41.808,48.833 42.002 C 48.879 42.068,49.254 42.291,49.667 42.497 C 60.647 47.985,64.859 60.736,59.276 71.583 C 54.020 81.794,41.468 85.866,31.212 80.687 C 26.196 78.154,23.330 74.902,20.620 68.667 C 19.873 66.950,19.333 63.997,19.334 61.635 C 19.334 59.587,20.060 55.542,20.570 54.750 C 20.688 54.567,21.046 53.813,21.365 53.076 C 22.744 49.889,26.130 45.489,27.706 44.835 C 27.822 44.787,28.442 44.402,29.083 43.979 C 29.725 43.555,30.738 42.965,31.333 42.666 C 31.929 42.368,32.457 42.061,32.507 41.983 C 32.731 41.635,36.004 40.733,38.250 40.402 C 39.954 40.150,42.218 40.221,44.130 40.587 M278.207 53.958 L 278.250 66.750 283.333 66.750 L 288.417 66.750 288.459 53.958 L 288.502 41.167 283.333 41.167 L 278.165 41.167 278.207 53.958 M319.207 53.958 L 319.250 66.750 324.333 66.750 L 329.417 66.750 329.459 53.958 L 329.502 41.167 324.333 41.167 L 319.165 41.167 319.207 53.958 M287.500 54.000 L 287.500 65.833 283.333 65.833 L 279.167 65.833 279.167 54.000 L 279.167 42.167 283.333 42.167 L 287.500 42.167 287.500 54.000 M328.500 54.000 L 328.500 65.833 324.333 65.833 L 320.167 65.833 320.167 54.000 L 320.167 42.167 324.333 42.167 L 328.500 42.167 328.500 54.000 M196.333 61.667 L 196.333 66.833 201.417 66.833 L 206.500 66.833 206.500 61.667 L 206.500 56.500 201.417 56.500 L 196.333 56.500 196.333 61.667 M205.500 61.667 L 205.500 65.833 201.333 65.833 L 197.167 65.833 197.167 61.667 L 197.167 57.500 201.333 57.500 L 205.500 57.500 205.500 61.667 " stroke="none" fill="#fbfbfb" fill-rule="evenodd"></path><path id="path1" d="M59.000 16.750 L 59.000 21.000 66.708 21.004 L 74.417 21.007 73.500 21.873 C 72.996 22.349,69.883 25.368,66.583 28.583 C 59.607 35.378,58.601 36.333,58.420 36.333 C 58.346 36.333,57.640 35.929,56.851 35.434 C 32.196 19.983,1.994 44.429,11.610 72.052 C 20.019 96.212,52.650 99.958,66.578 78.362 C 73.414 67.764,72.674 51.734,64.935 42.750 L 64.504 42.250 72.294 34.553 L 80.083 26.855 80.127 34.011 L 80.170 41.167 84.168 41.167 L 88.167 41.167 88.167 26.833 L 88.167 12.500 73.583 12.500 L 59.000 12.500 59.000 16.750 M109.167 30.917 L 109.167 36.000 106.583 36.000 L 104.000 36.000 104.000 38.583 L 104.000 41.167 106.583 41.167 L 109.167 41.167 109.167 54.000 L 109.167 66.833 111.750 66.833 L 114.333 66.833 114.333 69.333 L 114.333 71.833 124.583 71.833 L 134.833 71.833 134.833 69.335 L 134.833 66.837 127.125 66.793 L 119.417 66.750 119.374 53.960 L 119.331 41.170 127.041 41.127 L 134.750 41.083 134.750 38.583 L 134.750 36.083 127.042 36.040 L 119.333 35.997 119.333 30.915 L 119.333 25.833 114.250 25.833 L 109.167 25.833 109.167 30.917 M145.000 48.833 L 145.000 71.833 150.167 71.833 L 155.333 71.833 155.333 56.500 L 155.333 41.167 160.417 41.167 L 165.500 41.167 165.500 56.500 L 165.500 71.833 170.667 71.833 L 175.833 71.833 175.833 56.500 L 175.833 41.167 173.250 41.167 L 170.667 41.167 170.667 38.583 L 170.667 36.000 163.000 36.000 L 155.333 36.000 155.333 30.917 L 155.333 25.833 150.167 25.833 L 145.000 25.833 145.000 48.833 M232.167 30.917 L 232.167 36.000 229.583 36.000 L 227.000 36.000 227.000 38.583 L 227.000 41.167 229.583 41.167 L 232.167 41.167 232.167 54.000 L 232.167 66.833 234.667 66.833 L 237.167 66.833 237.167 69.333 L 237.167 71.833 247.417 71.833 L 257.667 71.833 257.667 69.335 L 257.667 66.837 250.042 66.793 L 242.417 66.750 242.374 53.958 L 242.331 41.167 249.999 41.167 L 257.667 41.167 257.667 38.583 L 257.667 36.000 250.000 36.000 L 242.333 36.000 242.333 30.917 L 242.333 25.833 237.250 25.833 L 232.167 25.833 232.167 30.917 M268.000 48.833 L 268.000 71.833 280.833 71.833 L 293.667 71.833 293.667 69.333 L 293.667 66.833 296.167 66.833 L 298.667 66.833 298.667 54.000 L 298.667 41.167 296.167 41.167 L 293.667 41.167 293.667 38.583 L 293.667 36.000 285.917 36.000 L 278.167 36.000 278.167 30.917 L 278.167 25.833 273.083 25.833 L 268.000 25.833 268.000 48.833 M191.167 38.583 L 191.167 41.167 198.833 41.167 L 206.500 41.167 206.500 46.250 L 206.500 51.333 198.833 51.333 L 191.167 51.333 191.167 53.917 L 191.167 56.500 188.583 56.500 L 186.000 56.500 186.000 61.667 L 186.000 66.833 188.583 66.833 L 191.167 66.833 191.167 69.333 L 191.167 71.833 203.917 71.833 L 216.667 71.833 216.667 56.500 L 216.667 41.167 214.167 41.167 L 211.667 41.167 211.667 38.583 L 211.667 36.000 201.417 36.000 L 191.167 36.000 191.167 38.583 M314.129 38.540 L 314.083 41.083 311.542 41.129 L 309.000 41.175 309.000 54.004 L 309.000 66.833 311.583 66.833 L 314.167 66.833 314.167 69.333 L 314.167 71.833 324.417 71.833 L 334.667 71.833 334.667 69.333 L 334.667 66.833 337.167 66.833 L 339.667 66.833 339.667 54.000 L 339.667 41.167 337.171 41.167 L 334.675 41.167 334.629 38.625 L 334.583 36.083 324.379 36.040 L 314.175 35.997 314.129 38.540 M350.000 51.417 L 350.000 66.833 352.500 66.833 L 355.000 66.833 355.000 69.333 L 355.000 71.833 360.167 71.833 L 365.333 71.833 365.333 74.417 L 365.333 77.000 362.750 77.000 L 360.167 77.000 360.167 79.583 L 360.167 82.167 352.496 82.167 L 344.825 82.167 344.871 84.708 L 344.917 87.250 355.125 87.293 L 365.333 87.336 365.333 84.751 L 365.333 82.167 367.917 82.167 L 370.500 82.167 370.500 79.583 L 370.500 77.000 373.083 77.000 L 375.667 77.000 375.667 71.917 L 375.667 66.833 378.167 66.833 L 380.667 66.833 380.667 51.417 L 380.667 36.000 375.584 36.000 L 370.502 36.000 370.459 51.375 L 370.417 66.750 365.333 66.750 L 360.250 66.750 360.207 51.375 L 360.165 36.000 355.082 36.000 L 350.000 36.000 350.000 51.417 M45.065 39.681 C 62.820 43.290,69.031 65.304,55.880 78.015 C 43.032 90.434,21.451 83.044,18.587 65.245 C 16.093 49.750,29.747 36.567,45.065 39.681 M288.459 53.958 L 288.417 66.750 283.333 66.750 L 278.250 66.750 278.207 53.958 L 278.165 41.167 283.333 41.167 L 288.502 41.167 288.459 53.958 M329.459 53.958 L 329.417 66.750 324.333 66.750 L 319.250 66.750 319.207 53.958 L 319.165 41.167 324.333 41.167 L 329.502 41.167 329.459 53.958 M206.500 61.667 L 206.500 66.833 201.417 66.833 L 196.333 66.833 196.333 61.667 L 196.333 56.500 201.417 56.500 L 206.500 56.500 206.500 61.667 " stroke="none" fill="#040404" fill-rule="evenodd"></path></g></svg>