<svg xmlns="http://www.w3.org/2000/svg" width="970" height="200"><g><title>background</title><rect id="canvas_background" width="972" height="202" x="-1" y="-1" fill="none"/><g id="canvasGrid" width="100%" height="100%" x="0" y="0" display="none"><rect id="thatboy" width="200" height="200" x="0" y="0" fill="url(#gridpattern)" stroke-width="0"/></g></g><g><title>thatboy text</title><line id="svg_9" x1="156" x2="156" y1="-24" y2="56" fill="none" fill-opacity="null" stroke="#fff" stroke-linecap="null" stroke-linejoin="null" stroke-width="24" transform="rotate(90 156,16.000000000000018)"/><line id="svg_8" x1="147" x2="223" y1="43.429" y2="43.429" fill="none" fill-opacity="null" stroke="#fff" stroke-linecap="null" stroke-linejoin="null" stroke-width="24" transform="rotate(90 185,43.42865371704104)"/><line id="svg_7" x1="130.786" x2="184.357" y1="15.357" y2="69.357" fill="none" fill-opacity="null" stroke="#fff" stroke-linecap="undefined" stroke-linejoin="undefined" stroke-width="24" transform="rotate(90 157.5713806152344,42.35726928710939)"/><ellipse id="svg_6" cx="84.571" cy="115.571" fill="none" fill-opacity="null" stroke="#fff" stroke-width="24" rx="70" ry="70" transform="rotate(90 84.57139587402344,115.57148742675783)"/><ellipse id="circle" cx="84.571" cy="115.571" fill="none" fill-opacity="null" stroke="#000" stroke-opacity="null" stroke-width="15" rx="70" ry="70" transform="rotate(90 84.57138061523438,115.5714797973633)"/><line id="line_0" x1="130.786" x2="184.357" y1="15.357" y2="69.357" fill="none" fill-opacity="null" stroke="#000" stroke-linecap="undefined" stroke-linejoin="undefined" stroke-opacity="null" stroke-width="15" transform="rotate(90 157.5713806152344,42.35726928710939)"/><line id="line_1" x1="149.571" x2="219.571" y1="43.429" y2="43.429" fill="none" fill-opacity="null" stroke="#000" stroke-linecap="null" stroke-linejoin="null" stroke-opacity="null" stroke-width="15" transform="rotate(90 184.57142639160156,43.4286575317383)"/><line id="line_2" x1="156.714" x2="156.714" y1="-19.429" y2="50.571" fill="none" fill-opacity="null" stroke="#000" stroke-linecap="null" stroke-linejoin="null" stroke-opacity="null" stroke-width="15" transform="rotate(90 156.7142791748047,15.571497917175309)"/><text id="thatboy-text" x="206" y="142" fill="#000" fill-opacity="null" stroke="#000" stroke-opacity="null" stroke-width="0" font-family="'Courier New', Courier, monospace" font-size="178" font-weight="bold" text-anchor="start" xml:space="preserve">thatboy</text><text id="svg_10" x="206" y="142" fill="#000" fill-opacity="null" stroke="#fff" stroke-opacity="null" stroke-width="4" font-family="'Courier New', Courier, monospace" font-size="178" font-weight="bold" text-anchor="start" xml:space="preserve">thatboy</text></g></svg>