<svg width="970" height="200" xmlns="http://www.w3.org/2000/svg">
 <g>
  <title>background</title>
  <rect fill="none" id="canvas_background" height="202" width="972" y="-1" x="-1"/>
  <g display="none" overflow="visible" y="0" x="0" height="100%" width="100%" id="canvasGrid">
   <rect fill="url(#gridpattern)" stroke-width="0" y="0" x="0" height="200" width="200" id="thatboy"/>
  </g>
 </g>

 <g>
  <title>thatboy text</title>
  <line transform="rotate(90 156,16.000000000000018) " fill="none" stroke-width="24" fill-opacity="null" y2="56" id="svg_9" stroke-linejoin="null" stroke-linecap="null" x2="156" y1="-24" x1="156" stroke="#ffffff"/>
  <line transform="rotate(90 185,43.42865371704104) " fill="none" stroke-width="24" fill-opacity="null" x2="223" id="svg_8" stroke-linejoin="null" stroke-linecap="null" y2="43.428655" y1="43.428655" x1="147" stroke="#ffffff"/>
  <line fill="none" stroke-width="24" fill-opacity="null" x2="184.35716" y2="69.357273" id="svg_7" stroke-linejoin="undefined" stroke-linecap="undefined" y1="15.357273" x1="130.785617" stroke="#ffffff" transform="rotate(90 157.5713806152344,42.35726928710939) "/>
  <ellipse fill="none" stroke-width="24" fill-opacity="null" cx="84.571399" cy="115.571491" id="svg_6" rx="70" ry="70" stroke="#ffffff" transform="rotate(90 84.57139587402344,115.57148742675783) "/>
  <ellipse fill="none" stroke-width="15" stroke-opacity="null" fill-opacity="null" cx="84.571399" cy="115.571491" id="circle" rx="70" ry="70" stroke="#000" transform="rotate(90 84.57138061523438,115.5714797973633) "/>
  <line fill="none" stroke-width="15" stroke-opacity="null" fill-opacity="null" x2="184.35716" y2="69.357273" id="line_0" stroke-linejoin="undefined" stroke-linecap="undefined" y1="15.357273" x1="130.785617" stroke="#000" transform="rotate(90 157.5713806152344,42.35726928710939) "/>
  <line fill="none" stroke-width="15" stroke-opacity="null" fill-opacity="null" x2="219.571396" id="line_1" stroke-linejoin="null" stroke-linecap="null" y2="43.428655" y1="43.428655" x1="149.571396" stroke="#000" transform="rotate(90 184.57142639160156,43.4286575317383) "/>
  <line fill="none" stroke-width="15" stroke-opacity="null" fill-opacity="null" y2="50.571496" id="line_2" stroke-linejoin="null" stroke-linecap="null" x2="156.714235" y1="-19.428504" x1="156.714235" stroke="#000" transform="rotate(90 156.7142791748047,15.571497917175309) "/>
  <text fill="#000000" stroke="#000" stroke-width="0" stroke-opacity="null" fill-opacity="null" x="206" y="142" id="thatboy-text" font-size="178" font-family="'Courier New', Courier, monospace" text-anchor="start" xml:space="preserve" font-weight="bold">thatboy</text>
  <text fill="#000000" stroke="#ffffff" stroke-width="4" stroke-opacity="null" fill-opacity="null" x="206" y="142" id="svg_10" font-size="178" font-family="'Courier New', Courier, monospace" text-anchor="start" xml:space="preserve" font-weight="bold">thatboy</text>
 </g>
</svg>